<svg xmlns="http://www.w3.org/2000/svg" viewBox="0 0 800 600" width="800" height="600" role="img" aria-label="Dönüşüm Landing Page Seti">
  <defs>
    <linearGradient id="bg" x1="0" y1="0" x2="1" y2="1">
      <stop offset="0%" stop-color="#5c0a2e"/>
      <stop offset="100%" stop-color="#8c1744"/>
    </linearGradient>
    <filter id="shadow">
      <feDropShadow dx="0" dy="8" stdDeviation="12" flood-color="#000000" flood-opacity="0.25"/>
    </filter>
  </defs>
  <rect width="800" height="600" fill="url(#bg)"/>
  <circle cx="680" cy="120" r="140" fill="#f43f5e" fill-opacity="0.05"/>
  <circle cx="100" cy="500" r="80" fill="#ffe4e6" fill-opacity="0.04"/>
  <g filter="url(#shadow)">
    
    <rect x="20" y="56" width="760" height="420" rx="12" fill="#ffffff" />
    <rect x="20" y="56" width="760" height="240" rx="0" fill="#5c0a2e" />
    <circle cx="650" cy="176" r="100" fill="#f43f5e" opacity="0.1"/>
    <circle cx="200" cy="220" r="60" fill="#ffe4e6" opacity="0.05"/>
    <text x="44" y="130" font-family="system-ui,Segoe UI,Arial" font-size="30" font-weight="800" fill="#ffffff" >Büyümeniz İçin</text>
    <text x="44" y="162" font-family="system-ui,Segoe UI,Arial" font-size="14" font-weight="normal" fill="#aaaacc" >En hızlı dönüşümü bu sayfa sağlar.</text>
    <rect x="44" y="182" width="360" height="60" rx="10" fill="#ffffff" opacity="0.1"/>
    <rect x="60" y="194" width="240" height="36" rx="8" fill="#ffffff" />
    <rect x="60" y="196" width="20" height="32" rx="4" fill="#eeeeee" />
    <text x="90" y="217" font-family="system-ui,Segoe UI,Arial" font-size="11" font-weight="normal" fill="#aaaaaa" >E-posta adresiniz</text>
    <rect x="312" y="194" width="100" height="36" rx="18" fill="#f43f5e" />
    <text x="328" y="216" font-family="system-ui,Segoe UI,Arial" font-size="11" font-weight="700" fill="#ffffff" >Hemen Al</text>
    <rect x="20" y="296" width="760" height="1" rx="0" fill="#eeeeee" />
    
      <rect x="20" y="312" width="240" height="140" rx="10" fill="#f9f9f9" />
      <rect x="20" y="312" width="240" height="48" rx="10" fill="#ffe4e6" opacity="0.3"/>
      <circle cx="140" cy="336" r="16" fill="#f43f5e" opacity="0.5"/>
      <rect x="44" y="374" width="160" height="13" rx="4" fill="#d4d4d4" />
      <rect x="44" y="394" width="120" height="10" rx="4" fill="#e4e4e4" />
    
      <rect x="276" y="312" width="240" height="140" rx="10" fill="#f9f9f9" />
      <rect x="276" y="312" width="240" height="48" rx="10" fill="#ffe4e6" opacity="0.3"/>
      <circle cx="396" cy="336" r="16" fill="#f43f5e" opacity="0.5"/>
      <rect x="300" y="374" width="160" height="13" rx="4" fill="#d4d4d4" />
      <rect x="300" y="394" width="120" height="10" rx="4" fill="#e4e4e4" />
    
      <rect x="532" y="312" width="240" height="140" rx="10" fill="#f9f9f9" />
      <rect x="532" y="312" width="240" height="48" rx="10" fill="#ffe4e6" opacity="0.3"/>
      <circle cx="652" cy="336" r="16" fill="#f43f5e" opacity="0.5"/>
      <rect x="556" y="374" width="160" height="13" rx="4" fill="#d4d4d4" />
      <rect x="556" y="394" width="120" height="10" rx="4" fill="#e4e4e4" />
    
  
  </g>
  <text x="20" y="576" font-family="system-ui,Segoe UI,Arial" font-size="22" font-weight="700" fill="#ffffff">Dönüşüm Landing Page Seti</text>
  <text x="20" y="596" font-family="system-ui,Segoe UI,Arial" font-size="12" fill="#ffffff" opacity="0.7">Reklam kampanyaları için A/B testine uygun 6 açılış sayfası.</text>
</svg>