<svg xmlns="http://www.w3.org/2000/svg" viewBox="0 0 768 1024" width="768" height="1024" role="img" aria-label="Kurumsal Dijital Dönüşüm Paketi tablet görünüm">
  <rect width="768" height="1024" rx="24" fill="#1f1f2e"/>
  <rect x="16" y="16" width="736" height="992" rx="16" fill="#ffffff"/>
  <!-- Home button -->
  <circle cx="384" cy="1000" r="18" fill="#141414" fill-opacity="0.3"/>
  <!-- Camera -->
  <circle cx="384" cy="28" r="5" fill="#141414" fill-opacity="0.3"/>
  <!-- Content -->
  <g transform="translate(16, 44) scale(0.95 0.78)">
    
    <rect x="20" y="56" width="760" height="420" rx="12" fill="#f8f9fa" />
    <rect x="20" y="56" width="760" height="56" rx="0" fill="#141414" />
    <text x="40" y="90" font-family="system-ui,Segoe UI,Arial" font-size="16" font-weight="700" fill="#ffffff" >Kurumsal Dijital Dönüşüm</text>
    <rect x="560" y="68" width="180" height="32" rx="8" fill="#818cf8" opacity="0.3"/>
    
    <rect x="20" y="120" width="176" height="80" rx="10" fill="#ffffff" />
    <text x="34" y="160" font-family="system-ui,Segoe UI,Arial" font-size="22" font-weight="700" fill="#141414" >A+</text>
    <text x="34" y="180" font-family="system-ui,Segoe UI,Arial" font-size="11" font-weight="normal" fill="#888888" >Web Skoru</text>
    <rect x="150" y="132" width="34" height="34" rx="8" fill="#e0e7ff" />
    <rect x="158" y="142" width="18" height="4" rx="2" fill="#818cf8" />
    <rect x="158" y="150" width="12" height="4" rx="2" fill="#9099d8" />
  
    <rect x="210" y="120" width="176" height="80" rx="10" fill="#ffffff" />
    <text x="224" y="160" font-family="system-ui,Segoe UI,Arial" font-size="22" font-weight="700" fill="#141414" >98%</text>
    <text x="224" y="180" font-family="system-ui,Segoe UI,Arial" font-size="11" font-weight="normal" fill="#888888" >Uptime</text>
    <rect x="340" y="132" width="34" height="34" rx="8" fill="#e0e7ff" />
    <rect x="348" y="142" width="18" height="4" rx="2" fill="#818cf8" />
    <rect x="348" y="150" width="12" height="4" rx="2" fill="#9099d8" />
  
    <rect x="400" y="120" width="176" height="80" rx="10" fill="#ffffff" />
    <text x="414" y="160" font-family="system-ui,Segoe UI,Arial" font-size="22" font-weight="700" fill="#141414" >4.9★</text>
    <text x="414" y="180" font-family="system-ui,Segoe UI,Arial" font-size="11" font-weight="normal" fill="#888888" >Müşteri Memnuniyeti</text>
    <rect x="530" y="132" width="34" height="34" rx="8" fill="#e0e7ff" />
    <rect x="538" y="142" width="18" height="4" rx="2" fill="#818cf8" />
    <rect x="538" y="150" width="12" height="4" rx="2" fill="#9099d8" />
  
    <rect x="590" y="120" width="176" height="80" rx="10" fill="#ffffff" />
    <text x="604" y="160" font-family="system-ui,Segoe UI,Arial" font-size="22" font-weight="700" fill="#141414" >24/7</text>
    <text x="604" y="180" font-family="system-ui,Segoe UI,Arial" font-size="11" font-weight="normal" fill="#888888" >Destek</text>
    <rect x="720" y="132" width="34" height="34" rx="8" fill="#e0e7ff" />
    <rect x="728" y="142" width="18" height="4" rx="2" fill="#818cf8" />
    <rect x="728" y="150" width="12" height="4" rx="2" fill="#9099d8" />
  
    <rect x="20" y="220" width="480" height="256" rx="12" fill="#ffffff" />
    <text x="36" y="244" font-family="system-ui,Segoe UI,Arial" font-size="13" font-weight="700" fill="#141414" >Dijital Dönüşüm Yol Haritası</text>
    <rect x="36" y="258" width="120" height="28" rx="4" fill="#818cf8" opacity="0.2"/>
      <text x="48" y="278" font-family="system-ui,Segoe UI,Arial" font-size="10" font-weight="normal" fill="#141414" >Analiz</text><rect x="36" y="298" width="240" height="28" rx="4" fill="#818cf8" opacity="0.4"/>
      <text x="48" y="318" font-family="system-ui,Segoe UI,Arial" font-size="10" font-weight="normal" fill="#141414" >Tasarım</text><rect x="36" y="338" width="180" height="28" rx="4" fill="#818cf8" opacity="0.3"/>
      <text x="48" y="358" font-family="system-ui,Segoe UI,Arial" font-size="10" font-weight="normal" fill="#141414" >Geliştirme</text><rect x="36" y="378" width="300" height="28" rx="4" fill="#818cf8" opacity="0.6"/>
      <text x="48" y="398" font-family="system-ui,Segoe UI,Arial" font-size="10" font-weight="normal" fill="#141414" >Test</text><rect x="36" y="418" width="400" height="28" rx="4" fill="#818cf8" opacity="0.8"/>
      <text x="48" y="438" font-family="system-ui,Segoe UI,Arial" font-size="10" font-weight="normal" fill="#141414" >Yayın</text>
    <rect x="514" y="220" width="266" height="256" rx="12" fill="#ffffff" />
    <text x="530" y="244" font-family="system-ui,Segoe UI,Arial" font-size="13" font-weight="700" fill="#141414" >Teknoloji Yığını</text>
    <rect x="530" y="258" width="230" height="28" rx="6" fill="#e0e7ff" opacity="0.4"/>
      <text x="546" y="276" font-family="system-ui,Segoe UI,Arial" font-size="11" font-weight="normal" fill="#141414" >Next.js</text><rect x="530" y="298" width="230" height="28" rx="6" fill="#e0e7ff" opacity="0.4"/>
      <text x="546" y="316" font-family="system-ui,Segoe UI,Arial" font-size="11" font-weight="normal" fill="#141414" >PostgreSQL</text><rect x="530" y="338" width="230" height="28" rx="6" fill="#e0e7ff" opacity="0.4"/>
      <text x="546" y="356" font-family="system-ui,Segoe UI,Arial" font-size="11" font-weight="normal" fill="#141414" >TypeScript</text><rect x="530" y="378" width="230" height="28" rx="6" fill="#e0e7ff" opacity="0.4"/>
      <text x="546" y="396" font-family="system-ui,Segoe UI,Arial" font-size="11" font-weight="normal" fill="#141414" >Docker</text><rect x="530" y="418" width="230" height="28" rx="6" fill="#e0e7ff" opacity="0.4"/>
      <text x="546" y="436" font-family="system-ui,Segoe UI,Arial" font-size="11" font-weight="normal" fill="#141414" >CI/CD</text>
  
  </g>
</svg>