<svg xmlns="http://www.w3.org/2000/svg" viewBox="0 0 800 600" width="800" height="600" role="img" aria-label="Medica Klinik Web Sitesi">
  <defs>
    <linearGradient id="bg" x1="0" y1="0" x2="1" y2="1">
      <stop offset="0%" stop-color="#083f3b"/>
      <stop offset="100%" stop-color="#0f6b64"/>
    </linearGradient>
    <filter id="shadow">
      <feDropShadow dx="0" dy="8" stdDeviation="12" flood-color="#000000" flood-opacity="0.25"/>
    </filter>
  </defs>
  <rect width="800" height="600" fill="url(#bg)"/>
  <circle cx="680" cy="120" r="140" fill="#2dd4bf" fill-opacity="0.05"/>
  <circle cx="100" cy="500" r="80" fill="#ccfbf1" fill-opacity="0.04"/>
  <g filter="url(#shadow)">
    
    <rect x="20" y="56" width="760" height="420" rx="12" fill="#ffffff" />
    
    <rect x="0" y="0" width="760" height="56" rx="0" fill="#ffffff" />
    <rect x="20" y="16" width="80" height="24" rx="6" fill="#083f3b" />
    <rect x="150" y="20" width="60" height="16" rx="4" fill="#e8e8e8" />
    <rect x="220" y="20" width="60" height="16" rx="4" fill="#e8e8e8" />
    <rect x="290" y="20" width="60" height="16" rx="4" fill="#e8e8e8" />
    <rect x="610" y="14" width="100" height="28" rx="14" fill="#2dd4bf" />
    <rect x="720" y="14" width="26" height="28" rx="14" fill="#f0f0ef" />
  
    <rect x="20" y="100" width="500" height="180" rx="0" fill="#ccfbf1" opacity="0.25"/>
    <text x="44" y="140" font-family="system-ui,Segoe UI,Arial" font-size="24" font-weight="800" fill="#083f3b" >Sağlıklı Yarınlar İçin</text>
    <text x="44" y="168" font-family="system-ui,Segoe UI,Arial" font-size="13" font-weight="normal" fill="#666666" >Online randevu — 7/24 hizmet</text>
    <rect x="44" y="186" width="140" height="34" rx="17" fill="#2dd4bf" />
    <text x="62" y="207" font-family="system-ui,Segoe UI,Arial" font-size="12" font-weight="600" fill="#ffffff" >Randevu Al</text>
    <rect x="520" y="100" width="260" height="180" rx="12" fill="#f0f8f4" />
    
    <rect x="536" y="116" width="228" height="38" rx="6" fill="#ccfbf1" />
    <rect x="536" y="116" width="4" height="38" rx="6" fill="#2dd4bf" />
    <text x="550" y="140" font-family="system-ui,Segoe UI,Arial" font-size="11" font-weight="normal" fill="#555555" >09:00</text>
    <rect x="616" y="126" width="80" height="18" rx="9" fill="#2dd4bf44" /><text x="626" y="138" font-family="system-ui,Segoe UI,Arial" font-size="10" font-weight="normal" fill="#083f3b" >Randevulu</text>
  
    <rect x="536" y="164" width="228" height="38" rx="6" fill="#e8e8e8" />
    <rect x="536" y="164" width="4" height="38" rx="6" fill="#cccccc" />
    <text x="550" y="188" font-family="system-ui,Segoe UI,Arial" font-size="11" font-weight="normal" fill="#555555" >10:30</text>
    
  
    <rect x="536" y="212" width="228" height="38" rx="6" fill="#ccfbf1" />
    <rect x="536" y="212" width="4" height="38" rx="6" fill="#2dd4bf" />
    <text x="550" y="236" font-family="system-ui,Segoe UI,Arial" font-size="11" font-weight="normal" fill="#555555" >13:00</text>
    <rect x="616" y="222" width="80" height="18" rx="9" fill="#2dd4bf44" /><text x="626" y="234" font-family="system-ui,Segoe UI,Arial" font-size="10" font-weight="normal" fill="#083f3b" >Randevulu</text>
  
    <rect x="20" y="300" width="760" height="1" rx="0" fill="#eeeeee" />
    <rect x="20" y="316" width="178" height="120" rx="10" fill="#f9f9f9" />
      <circle cx="109" cy="356" r="24" fill="#ccfbf1" />
      <rect x="44" y="392" width="110" height="12" rx="4" fill="#d4d4d4" />
      <rect x="44" y="410" width="80" height="9" rx="4" fill="#e8e8e8" /><rect x="212" y="316" width="178" height="120" rx="10" fill="#f9f9f9" />
      <circle cx="301" cy="356" r="24" fill="#ccfbf1" />
      <rect x="236" y="392" width="110" height="12" rx="4" fill="#d4d4d4" />
      <rect x="236" y="410" width="80" height="9" rx="4" fill="#e8e8e8" /><rect x="404" y="316" width="178" height="120" rx="10" fill="#f9f9f9" />
      <circle cx="493" cy="356" r="24" fill="#ccfbf1" />
      <rect x="428" y="392" width="110" height="12" rx="4" fill="#d4d4d4" />
      <rect x="428" y="410" width="80" height="9" rx="4" fill="#e8e8e8" /><rect x="596" y="316" width="178" height="120" rx="10" fill="#f9f9f9" />
      <circle cx="685" cy="356" r="24" fill="#ccfbf1" />
      <rect x="620" y="392" width="110" height="12" rx="4" fill="#d4d4d4" />
      <rect x="620" y="410" width="80" height="9" rx="4" fill="#e8e8e8" />
  
  </g>
  <text x="20" y="576" font-family="system-ui,Segoe UI,Arial" font-size="22" font-weight="700" fill="#ffffff">Medica Klinik Web Sitesi</text>
  <text x="20" y="596" font-family="system-ui,Segoe UI,Arial" font-size="12" fill="#ffffff" opacity="0.7">Online randevu ve hasta bilgilendirme odaklı sağlık sitesi.</text>
</svg>