<svg xmlns="http://www.w3.org/2000/svg" viewBox="0 0 1200 800" width="1200" height="800" role="img" aria-label="Pazar Çok Satıcılı Pazaryeri masaüstü görünüm">
  <defs>
    <linearGradient id="bg" x1="0" y1="0" x2="0" y2="1">
      <stop offset="0%" stop-color="#0b1f4f"/>
      <stop offset="100%" stop-color="#1a3670"/>
    </linearGradient>
  </defs>
  <rect width="1200" height="800" fill="url(#bg)"/>
  <rect x="80" y="40" width="1040" height="660" rx="12" fill="#ffffff" filter="url(#f1)"/>
  <defs>
    <filter id="f1"><feDropShadow dx="0" dy="10" stdDeviation="20" flood-opacity="0.3"/></filter>
  </defs>
  <!-- Browser chrome -->
  <rect x="80" y="40" width="1040" height="44" rx="12" fill="#f0f0ef"/>
  <rect x="80" y="72" width="1040" height="12" fill="#f0f0ef"/>
  <circle cx="106" cy="62" r="7" fill="#ff5f57"/>
  <circle cx="128" cy="62" r="7" fill="#febc2e"/>
  <circle cx="150" cy="62" r="7" fill="#28c840"/>
  <rect x="180" y="52" width="400" height="20" rx="10" fill="#e2e2e0"/>
  <rect x="198" y="57" width="260" height="10" rx="5" fill="#d0d0ce"/>
  <!-- Inner page (scaled version) -->
  <g transform="translate(80, 84) scale(1.04)">
    
    <rect x="20" y="56" width="760" height="420" rx="12" fill="#ffffff" />
    
    <rect x="0" y="0" width="760" height="56" rx="0" fill="#ffffff" />
    <rect x="20" y="16" width="80" height="24" rx="6" fill="#0b1f4f" />
    <rect x="150" y="20" width="60" height="16" rx="4" fill="#e8e8e8" />
    <rect x="220" y="20" width="60" height="16" rx="4" fill="#e8e8e8" />
    <rect x="290" y="20" width="60" height="16" rx="4" fill="#e8e8e8" />
    <rect x="610" y="14" width="100" height="28" rx="14" fill="#4a8fff" />
    <rect x="720" y="14" width="26" height="28" rx="14" fill="#f0f0ef" />
  
    <rect x="20" y="112" width="760" height="40" rx="0" fill="#dbeafe" opacity="0.3"/>
    <rect x="36" y="120" width="500" height="24" rx="12" fill="#ffffff" />
    <rect x="52" y="124" width="360" height="16" rx="8" fill="#eeeeee" />
    <rect x="548" y="116" width="80" height="32" rx="8" fill="#4a8fff" />
    <rect x="20" y="158" width="180" height="310" rx="10" fill="#f9f9f9" />
    <text x="36" y="182" font-family="system-ui,Segoe UI,Arial" font-size="13" font-weight="700" fill="#0b1f4f" >Kategoriler</text>
    <rect x="28" y="194" width="160" height="32" rx="6" fill="#dbeafe" />
      <rect x="28" y="194" width="3" height="32" rx="0" fill="#4a8fff" />
      <text x="40" y="214" font-family="system-ui,Segoe UI,Arial" font-size="11" font-weight="normal" fill="#444444" >Elektronik</text><rect x="28" y="234" width="160" height="32" rx="6" fill="#ffffff" />
      <rect x="28" y="234" width="3" height="32" rx="0" fill="#e0e0e0" />
      <text x="40" y="254" font-family="system-ui,Segoe UI,Arial" font-size="11" font-weight="normal" fill="#444444" >Giyim</text><rect x="28" y="274" width="160" height="32" rx="6" fill="#ffffff" />
      <rect x="28" y="274" width="3" height="32" rx="0" fill="#e0e0e0" />
      <text x="40" y="294" font-family="system-ui,Segoe UI,Arial" font-size="11" font-weight="normal" fill="#444444" >Ev</text><rect x="28" y="314" width="160" height="32" rx="6" fill="#ffffff" />
      <rect x="28" y="314" width="3" height="32" rx="0" fill="#e0e0e0" />
      <text x="40" y="334" font-family="system-ui,Segoe UI,Arial" font-size="11" font-weight="normal" fill="#444444" >Kozmetik</text><rect x="28" y="354" width="160" height="32" rx="6" fill="#ffffff" />
      <rect x="28" y="354" width="3" height="32" rx="0" fill="#e0e0e0" />
      <text x="40" y="374" font-family="system-ui,Segoe UI,Arial" font-size="11" font-weight="normal" fill="#444444" >Spor</text><rect x="28" y="394" width="160" height="32" rx="6" fill="#ffffff" />
      <rect x="28" y="394" width="3" height="32" rx="0" fill="#e0e0e0" />
      <text x="40" y="414" font-family="system-ui,Segoe UI,Arial" font-size="11" font-weight="normal" fill="#444444" >Kitap</text>
    
      <rect x="210" y="158" width="182" height="70" rx="10" fill="#ffffff" />
      <rect x="210" y="158" width="182" height="38" rx="10" fill="#dbeafe" />
      <circle cx="301" cy="177" r="11.4" fill="#7aadee" opacity="0.5"/>
      <rect x="220" y="204" width="145.6" height="10" rx="3" fill="#d4d4d4" />
      <rect x="220" y="220" width="91" height="8" rx="3" fill="#e8e8e8" />
      <rect x="220" y="234" width="72.8" height="18" rx="9" fill="#4a8fff" />
    
      <rect x="404" y="158" width="182" height="70" rx="10" fill="#ffffff" />
      <rect x="404" y="158" width="182" height="38" rx="10" fill="#dbeafe" />
      <circle cx="495" cy="177" r="11.4" fill="#7aadee" opacity="0.5"/>
      <rect x="414" y="204" width="145.6" height="10" rx="3" fill="#d4d4d4" />
      <rect x="414" y="220" width="91" height="8" rx="3" fill="#e8e8e8" />
      <rect x="414" y="234" width="72.8" height="18" rx="9" fill="#4a8fff" />
    
      <rect x="598" y="158" width="182" height="70" rx="10" fill="#ffffff" />
      <rect x="598" y="158" width="182" height="38" rx="10" fill="#dbeafe" />
      <circle cx="689" cy="177" r="11.4" fill="#7aadee" opacity="0.5"/>
      <rect x="608" y="204" width="145.6" height="10" rx="3" fill="#d4d4d4" />
      <rect x="608" y="220" width="91" height="8" rx="3" fill="#e8e8e8" />
      <rect x="608" y="234" width="72.8" height="18" rx="9" fill="#4a8fff" />
    
      <rect x="210" y="236" width="182" height="70" rx="10" fill="#ffffff" />
      <rect x="210" y="236" width="182" height="38" rx="10" fill="#dbeafe" />
      <circle cx="301" cy="255" r="11.4" fill="#7aadee" opacity="0.5"/>
      <rect x="220" y="282" width="145.6" height="10" rx="3" fill="#d4d4d4" />
      <rect x="220" y="298" width="91" height="8" rx="3" fill="#e8e8e8" />
      <rect x="220" y="312" width="72.8" height="18" rx="9" fill="#4a8fff" />
    
      <rect x="404" y="236" width="182" height="70" rx="10" fill="#ffffff" />
      <rect x="404" y="236" width="182" height="38" rx="10" fill="#dbeafe" />
      <circle cx="495" cy="255" r="11.4" fill="#7aadee" opacity="0.5"/>
      <rect x="414" y="282" width="145.6" height="10" rx="3" fill="#d4d4d4" />
      <rect x="414" y="298" width="91" height="8" rx="3" fill="#e8e8e8" />
      <rect x="414" y="312" width="72.8" height="18" rx="9" fill="#4a8fff" />
    
      <rect x="598" y="236" width="182" height="70" rx="10" fill="#ffffff" />
      <rect x="598" y="236" width="182" height="38" rx="10" fill="#dbeafe" />
      <circle cx="689" cy="255" r="11.4" fill="#7aadee" opacity="0.5"/>
      <rect x="608" y="282" width="145.6" height="10" rx="3" fill="#d4d4d4" />
      <rect x="608" y="298" width="91" height="8" rx="3" fill="#e8e8e8" />
      <rect x="608" y="312" width="72.8" height="18" rx="9" fill="#4a8fff" />
    
    <rect x="20" y="440" width="760" height="36" rx="0" fill="#0b1f4f" opacity="0.9"/>
    <text x="44" y="461" font-family="system-ui,Segoe UI,Arial" font-size="11" font-weight="normal" fill="#aaaaaa" >Pazar — Güvenli Alışveriş Platformu</text>
  
  </g>
  <!-- Monitor stand -->
  <rect x="540" y="700" width="120" height="16" rx="8" fill="#1a3670" fill-opacity="0.5"/>
  <rect x="510" y="716" width="180" height="8" rx="4" fill="#1a3670" fill-opacity="0.3"/>
</svg>