<svg xmlns="http://www.w3.org/2000/svg" viewBox="0 0 1200 800" width="1200" height="800" role="img" aria-label="Rota Kurye ve Teslimat Sistemi masaüstü görünüm">
  <defs>
    <linearGradient id="bg" x1="0" y1="0" x2="0" y2="1">
      <stop offset="0%" stop-color="#5a3805"/>
      <stop offset="100%" stop-color="#92600d"/>
    </linearGradient>
  </defs>
  <rect width="1200" height="800" fill="url(#bg)"/>
  <rect x="80" y="40" width="1040" height="660" rx="12" fill="#ffffff" filter="url(#f1)"/>
  <defs>
    <filter id="f1"><feDropShadow dx="0" dy="10" stdDeviation="20" flood-opacity="0.3"/></filter>
  </defs>
  <!-- Browser chrome -->
  <rect x="80" y="40" width="1040" height="44" rx="12" fill="#f0f0ef"/>
  <rect x="80" y="72" width="1040" height="12" fill="#f0f0ef"/>
  <circle cx="106" cy="62" r="7" fill="#ff5f57"/>
  <circle cx="128" cy="62" r="7" fill="#febc2e"/>
  <circle cx="150" cy="62" r="7" fill="#28c840"/>
  <rect x="180" y="52" width="400" height="20" rx="10" fill="#e2e2e0"/>
  <rect x="198" y="57" width="260" height="10" rx="5" fill="#d0d0ce"/>
  <!-- Inner page (scaled version) -->
  <g transform="translate(80, 84) scale(1.04)">
    
    <rect x="20" y="56" width="760" height="420" rx="12" fill="#ffffff" />
    <rect x="20" y="56" width="760" height="56" rx="0" fill="#5a3805" />
    <text x="44" y="90" font-family="system-ui,Segoe UI,Arial" font-size="16" font-weight="700" fill="#ffffff" >Rota — Kurye & Teslimat</text>
    <rect x="20" y="112" width="360" height="364" rx="10" fill="#f5f5f5" />
    
    <rect x="28" y="120" width="344" height="280" rx="10" fill="#e8ede8" />
    <rect x="96.8" y="162" width="206.4" height="1" rx="0" fill="#c8d0c8" opacity="0.5"/>
    <rect x="96.8" y="218" width="206.4" height="1" rx="0" fill="#c8d0c8" opacity="0.5"/>
    <rect x="96.8" y="274" width="206.4" height="1" rx="0" fill="#c8d0c8" opacity="0.5"/>
    <rect x="96.8" y="330" width="206.4" height="1" rx="0" fill="#c8d0c8" opacity="0.5"/>
    <rect x="114" y="162" width="1" height="182" rx="0" fill="#c8d0c8" opacity="0.5"/>
    <rect x="200" y="162" width="1" height="182" rx="0" fill="#c8d0c8" opacity="0.5"/>
    <rect x="286" y="162" width="1" height="182" rx="0" fill="#c8d0c8" opacity="0.5"/>
    <circle cx="200" cy="246" r="12" fill="#f59e0b" />
    <circle cx="200" cy="246" r="6" fill="#ffffff" />
    <rect x="165.6" y="288" width="68.8" height="33.6" rx="4" fill="#ffffff" />
    <text x="170" y="321.6" font-family="system-ui,Segoe UI,Arial" font-size="8" font-weight="normal" fill="#555555" >Gebze / Kocaeli</text>
  
    <rect x="28" y="412" width="344" height="52" rx="8" fill="#ffffff" />
    <text x="44" y="432" font-family="system-ui,Segoe UI,Arial" font-size="13" font-weight="700" fill="#5a3805" >4 Aktif Kurye</text>
    <text x="44" y="450" font-family="system-ui,Segoe UI,Arial" font-size="11" font-weight="normal" fill="#888888" >23 teslimat tamamlandı</text>
    <rect x="392" y="112" width="388" height="364" rx="12" fill="#ffffff" />
    <text x="412" y="138" font-family="system-ui,Segoe UI,Arial" font-size="14" font-weight="700" fill="#5a3805" >Siparişler</text>
    <rect x="408" y="152" width="364" height="52" rx="8" fill="#f9f9f9" />
      <rect x="408" y="152" width="4" height="52" rx="0" fill="#f59e0b" />
      <rect x="422" y="164" width="180" height="11" rx="4" fill="#d4d4d4" />
      <rect x="422" y="181" width="120" height="9" rx="4" fill="#e4e4e4" />
      <rect x="620" y="162" width="80" height="20" rx="10" fill="#dbeafe" />
      <text x="630" y="176" font-family="system-ui,Segoe UI,Arial" font-size="10" font-weight="normal" fill="#555555" >Yolda</text><rect x="408" y="212" width="364" height="52" rx="8" fill="#f9f9f9" />
      <rect x="408" y="212" width="4" height="52" rx="0" fill="#f59e0b" />
      <rect x="422" y="224" width="180" height="11" rx="4" fill="#d4d4d4" />
      <rect x="422" y="241" width="120" height="9" rx="4" fill="#e4e4e4" />
      <rect x="620" y="222" width="80" height="20" rx="10" fill="#fef3c7" />
      <text x="630" y="236" font-family="system-ui,Segoe UI,Arial" font-size="10" font-weight="normal" fill="#555555" >Hazır</text><rect x="408" y="272" width="364" height="52" rx="8" fill="#f9f9f9" />
      <rect x="408" y="272" width="4" height="52" rx="0" fill="#10b981" />
      <rect x="422" y="284" width="180" height="11" rx="4" fill="#d4d4d4" />
      <rect x="422" y="301" width="120" height="9" rx="4" fill="#e4e4e4" />
      <rect x="620" y="282" width="80" height="20" rx="10" fill="#d1fae5" />
      <text x="630" y="296" font-family="system-ui,Segoe UI,Arial" font-size="10" font-weight="normal" fill="#555555" >Teslim</text><rect x="408" y="332" width="364" height="52" rx="8" fill="#f9f9f9" />
      <rect x="408" y="332" width="4" height="52" rx="0" fill="#e0b860" />
      <rect x="422" y="344" width="180" height="11" rx="4" fill="#d4d4d4" />
      <rect x="422" y="361" width="120" height="9" rx="4" fill="#e4e4e4" />
      <rect x="620" y="342" width="80" height="20" rx="10" fill="#f3f4f6" />
      <text x="630" y="356" font-family="system-ui,Segoe UI,Arial" font-size="10" font-weight="normal" fill="#555555" >Bekliyor</text><rect x="408" y="392" width="364" height="52" rx="8" fill="#f9f9f9" />
      <rect x="408" y="392" width="4" height="52" rx="0" fill="#ef4444" />
      <rect x="422" y="404" width="180" height="11" rx="4" fill="#d4d4d4" />
      <rect x="422" y="421" width="120" height="9" rx="4" fill="#e4e4e4" />
      <rect x="620" y="402" width="80" height="20" rx="10" fill="#fee2e2" />
      <text x="630" y="416" font-family="system-ui,Segoe UI,Arial" font-size="10" font-weight="normal" fill="#555555" >İptal</text>
  
  </g>
  <!-- Monitor stand -->
  <rect x="540" y="700" width="120" height="16" rx="8" fill="#92600d" fill-opacity="0.5"/>
  <rect x="510" y="716" width="180" height="8" rx="4" fill="#92600d" fill-opacity="0.3"/>
</svg>