<svg xmlns="http://www.w3.org/2000/svg" viewBox="0 0 390 780" width="390" height="780" role="img" aria-label="Rota Kurye ve Teslimat Sistemi mobil görünüm">
    <rect width="390" height="780" rx="42" fill="#5a3805"/>
    <rect x="14" y="14" width="362" height="752" rx="32" fill="#ffffff"/>
    <rect x="150" y="26" width="90" height="18" rx="9" fill="#eceee9"/>
    <rect x="0" y="56" width="390" height="52" fill="#ffffff"/>
    <rect x="14" y="68" width="60" height="28" rx="8" fill="#5a3805"/>
    <rect x="260" y="68" width="60" height="28" rx="14" fill="#f59e0b"/>
    <rect x="330" y="70" width="50" height="24" rx="8" fill="#eeeeee"/>
    <rect x="14" y="116" width="362" height="180" rx="16" fill="#fdf0d5" fill-opacity="0.5"/>
    <circle cx="195" cy="206" r="40" fill="#f59e0b" fill-opacity="0.2"/>
    <rect x="14" y="316" width="172" height="120" rx="14" fill="#f9f9f9"/>
    <rect x="14" y="316" width="172" height="48" rx="14" fill="#fdf0d5" fill-opacity="0.5"/>
    <rect x="204" y="316" width="172" height="120" rx="14" fill="#f9f9f9"/>
    <rect x="204" y="316" width="172" height="48" rx="14" fill="#f59e0b" fill-opacity="0.15"/>
    <rect x="14" y="452" width="362" height="48" rx="24" fill="#f59e0b"/>
    <rect x="14" y="516" width="172" height="80" rx="14" fill="#f9f9f9"/>
    <rect x="204" y="516" width="172" height="80" rx="14" fill="#f9f9f9"/>
    <rect x="14" y="612" width="362" height="80" rx="14" fill="#fdf0d5" fill-opacity="0.3"/>
    <rect x="34" y="632" width="200" height="14" rx="4" fill="#d4d4d4"/>
    <rect x="34" y="656" width="140" height="10" rx="4" fill="#e4e4e4"/>
    <rect x="0" y="710" width="390" height="56" fill="#ffffff"/>
    <circle cx="50" cy="736" r="14" fill="#f59e0b" fill-opacity="0.3"/><circle cx="140" cy="736" r="14" fill="#fdf0d5" fill-opacity="0.15"/><circle cx="230" cy="736" r="14" fill="#fdf0d5" fill-opacity="0.15"/><circle cx="320" cy="736" r="14" fill="#fdf0d5" fill-opacity="0.15"/>
  </svg>