<svg xmlns="http://www.w3.org/2000/svg" viewBox="0 0 1200 800" width="1200" height="800" role="img" aria-label="Sağlık Turizmi Dijital Paketi masaüstü görünüm">
  <defs>
    <linearGradient id="bg" x1="0" y1="0" x2="0" y2="1">
      <stop offset="0%" stop-color="#083f3b"/>
      <stop offset="100%" stop-color="#0f6b64"/>
    </linearGradient>
  </defs>
  <rect width="1200" height="800" fill="url(#bg)"/>
  <rect x="80" y="40" width="1040" height="660" rx="12" fill="#ffffff" filter="url(#f1)"/>
  <defs>
    <filter id="f1"><feDropShadow dx="0" dy="10" stdDeviation="20" flood-opacity="0.3"/></filter>
  </defs>
  <!-- Browser chrome -->
  <rect x="80" y="40" width="1040" height="44" rx="12" fill="#f0f0ef"/>
  <rect x="80" y="72" width="1040" height="12" fill="#f0f0ef"/>
  <circle cx="106" cy="62" r="7" fill="#ff5f57"/>
  <circle cx="128" cy="62" r="7" fill="#febc2e"/>
  <circle cx="150" cy="62" r="7" fill="#28c840"/>
  <rect x="180" y="52" width="400" height="20" rx="10" fill="#e2e2e0"/>
  <rect x="198" y="57" width="260" height="10" rx="5" fill="#d0d0ce"/>
  <!-- Inner page (scaled version) -->
  <g transform="translate(80, 84) scale(1.04)">
    
    <rect x="20" y="56" width="760" height="420" rx="12" fill="#ffffff" />
    <rect x="20" y="56" width="760" height="180" rx="0" fill="#083f3b" />
    <circle cx="680" cy="146" r="90" fill="#2dd4bf" opacity="0.08"/>
    <text x="44" y="120" font-family="system-ui,Segoe UI,Arial" font-size="28" font-weight="800" fill="#ffffff" >Sağlık Turizmi</text>
    <text x="44" y="150" font-family="system-ui,Segoe UI,Arial" font-size="28" font-weight="800" fill="#2dd4bf" >Dijital Paketi</text>
    <text x="44" y="178" font-family="system-ui,Segoe UI,Arial" font-size="13" font-weight="normal" fill="#aaaacc" >Yabancı hasta akışını dijitale taşıyın.</text>
    <rect x="44" y="196" width="160" height="32" rx="16" fill="#2dd4bf" />
    <text x="64" y="215" font-family="system-ui,Segoe UI,Arial" font-size="12" font-weight="600" fill="#ffffff" >Paketi İncele →</text>
    <rect x="20" y="252" width="760" height="1" rx="0" fill="#eeeeee" />
    <rect x="20" y="268" width="178" height="120" rx="10" fill="#f9f9f9" />
      <circle cx="109" cy="308" r="24" fill="#ccfbf1" />
      <text x="85" y="313" font-family="system-ui,Segoe UI,Arial" font-size="20" font-weight="normal" fill="#ffffff" >🏥</text>
      <rect x="44" y="344" width="110" height="12" rx="4" fill="#d4d4d4" />
      <rect x="44" y="362" width="80" height="9" rx="4" fill="#e8e8e8" /><rect x="212" y="268" width="178" height="120" rx="10" fill="#f9f9f9" />
      <circle cx="301" cy="308" r="24" fill="#ccfbf1" />
      <text x="277" y="313" font-family="system-ui,Segoe UI,Arial" font-size="20" font-weight="normal" fill="#ffffff" >🌍</text>
      <rect x="236" y="344" width="110" height="12" rx="4" fill="#d4d4d4" />
      <rect x="236" y="362" width="80" height="9" rx="4" fill="#e8e8e8" /><rect x="404" y="268" width="178" height="120" rx="10" fill="#f9f9f9" />
      <circle cx="493" cy="308" r="24" fill="#ccfbf1" />
      <text x="469" y="313" font-family="system-ui,Segoe UI,Arial" font-size="20" font-weight="normal" fill="#ffffff" >📱</text>
      <rect x="428" y="344" width="110" height="12" rx="4" fill="#d4d4d4" />
      <rect x="428" y="362" width="80" height="9" rx="4" fill="#e8e8e8" /><rect x="596" y="268" width="178" height="120" rx="10" fill="#f9f9f9" />
      <circle cx="685" cy="308" r="24" fill="#ccfbf1" />
      <text x="661" y="313" font-family="system-ui,Segoe UI,Arial" font-size="20" font-weight="normal" fill="#ffffff" >📊</text>
      <rect x="620" y="344" width="110" height="12" rx="4" fill="#d4d4d4" />
      <rect x="620" y="362" width="80" height="9" rx="4" fill="#e8e8e8" />
  
  </g>
  <!-- Monitor stand -->
  <rect x="540" y="700" width="120" height="16" rx="8" fill="#0f6b64" fill-opacity="0.5"/>
  <rect x="510" y="716" width="180" height="8" rx="4" fill="#0f6b64" fill-opacity="0.3"/>
</svg>