<svg xmlns="http://www.w3.org/2000/svg" viewBox="0 0 768 1024" width="768" height="1024" role="img" aria-label="Sağlık Turizmi Dijital Paketi tablet görünüm">
  <rect width="768" height="1024" rx="24" fill="#0f6b64"/>
  <rect x="16" y="16" width="736" height="992" rx="16" fill="#ffffff"/>
  <!-- Home button -->
  <circle cx="384" cy="1000" r="18" fill="#083f3b" fill-opacity="0.3"/>
  <!-- Camera -->
  <circle cx="384" cy="28" r="5" fill="#083f3b" fill-opacity="0.3"/>
  <!-- Content -->
  <g transform="translate(16, 44) scale(0.95 0.78)">
    
    <rect x="20" y="56" width="760" height="420" rx="12" fill="#ffffff" />
    <rect x="20" y="56" width="760" height="180" rx="0" fill="#083f3b" />
    <circle cx="680" cy="146" r="90" fill="#2dd4bf" opacity="0.08"/>
    <text x="44" y="120" font-family="system-ui,Segoe UI,Arial" font-size="28" font-weight="800" fill="#ffffff" >Sağlık Turizmi</text>
    <text x="44" y="150" font-family="system-ui,Segoe UI,Arial" font-size="28" font-weight="800" fill="#2dd4bf" >Dijital Paketi</text>
    <text x="44" y="178" font-family="system-ui,Segoe UI,Arial" font-size="13" font-weight="normal" fill="#aaaacc" >Yabancı hasta akışını dijitale taşıyın.</text>
    <rect x="44" y="196" width="160" height="32" rx="16" fill="#2dd4bf" />
    <text x="64" y="215" font-family="system-ui,Segoe UI,Arial" font-size="12" font-weight="600" fill="#ffffff" >Paketi İncele →</text>
    <rect x="20" y="252" width="760" height="1" rx="0" fill="#eeeeee" />
    <rect x="20" y="268" width="178" height="120" rx="10" fill="#f9f9f9" />
      <circle cx="109" cy="308" r="24" fill="#ccfbf1" />
      <text x="85" y="313" font-family="system-ui,Segoe UI,Arial" font-size="20" font-weight="normal" fill="#ffffff" >🏥</text>
      <rect x="44" y="344" width="110" height="12" rx="4" fill="#d4d4d4" />
      <rect x="44" y="362" width="80" height="9" rx="4" fill="#e8e8e8" /><rect x="212" y="268" width="178" height="120" rx="10" fill="#f9f9f9" />
      <circle cx="301" cy="308" r="24" fill="#ccfbf1" />
      <text x="277" y="313" font-family="system-ui,Segoe UI,Arial" font-size="20" font-weight="normal" fill="#ffffff" >🌍</text>
      <rect x="236" y="344" width="110" height="12" rx="4" fill="#d4d4d4" />
      <rect x="236" y="362" width="80" height="9" rx="4" fill="#e8e8e8" /><rect x="404" y="268" width="178" height="120" rx="10" fill="#f9f9f9" />
      <circle cx="493" cy="308" r="24" fill="#ccfbf1" />
      <text x="469" y="313" font-family="system-ui,Segoe UI,Arial" font-size="20" font-weight="normal" fill="#ffffff" >📱</text>
      <rect x="428" y="344" width="110" height="12" rx="4" fill="#d4d4d4" />
      <rect x="428" y="362" width="80" height="9" rx="4" fill="#e8e8e8" /><rect x="596" y="268" width="178" height="120" rx="10" fill="#f9f9f9" />
      <circle cx="685" cy="308" r="24" fill="#ccfbf1" />
      <text x="661" y="313" font-family="system-ui,Segoe UI,Arial" font-size="20" font-weight="normal" fill="#ffffff" >📊</text>
      <rect x="620" y="344" width="110" height="12" rx="4" fill="#d4d4d4" />
      <rect x="620" y="362" width="80" height="9" rx="4" fill="#e8e8e8" />
  
  </g>
</svg>